# xmcd
#
# Track frame offsets:
#	150
#	14250
#	41731
#	61065
#	74094
#	91046
#	104194
#	123377
#	137091
#	156530
#	172512
#	196855
#	254424
#
# Disc length: 4215 seconds
#
# Revision: 0
# Processed by: cddbd v1.5.2PL0 Copyright (c) Steve Scherf et al.
# Submitted via: EasyCDDAExtractor 10.0.1.1
#
DISCID=b410750d
DTITLE=Larry Howard - Looking Back
DYEAR=2005
DGENRE=Blues
TTITLE0=Brightside of the Blues
TTITLE1=Lost Ship
TTITLE2=Callin on Love
TTITLE3=Evangelistic Blues
TTITLE4=Trouble No More
TTITLE5=Boogie Man
TTITLE6=Achin In My Side
TTITLE7=Gone Fishin
TTITLE8=Find Out For Yourself
TTITLE9=Cool Rain
TTITLE10=Real Miracle Man
TTITLE11=It's Only You
TTITLE12=I Found Out
EXTD=
EXTT0=
EXTT1=
EXTT2=
EXTT3=
EXTT4=
EXTT5=
EXTT6=
EXTT7=
EXTT8=
EXTT9=
EXTT10=
EXTT11=
EXTT12=
PLAYORDER=
